<?xml version="1.0" standalone="no"?>
<!DOCTYPE svg PUBLIC "-//W3C//DTD SVG 20010904//EN"
 "http://www.w3.org/TR/2001/REC-SVG-20010904/DTD/svg10.dtd">
<svg version="1.0" xmlns="http://www.w3.org/2000/svg"
 width="512.000000pt" height="512.000000pt" viewBox="0 0 512.000000 512.000000"
 preserveAspectRatio="xMidYMid meet">
<metadata>
Created by potrace 1.11, written by Peter Selinger 2001-2013
</metadata>
<g transform="translate(0.000000,512.000000) scale(0.100000,-0.100000)"
fill="#000000" stroke="none">
<path d="M2618 5115 c-2 -1 -48 -5 -103 -8 -287 -18 -593 -109 -856 -256 -105
-58 -235 -140 -274 -172 -11 -10 -54 -44 -95 -77 -237 -191 -444 -442 -613
-744 -97 -174 -232 -509 -261 -648 -3 -14 -7 -34 -10 -45 -19 -79 -45 -221
-51 -275 -4 -36 -10 -84 -15 -107 -4 -23 -6 -44 -4 -46 2 -2 43 5 91 14 49 10
106 21 128 24 22 4 69 13 105 20 36 8 135 28 220 44 85 17 167 33 183 36 15 3
39 7 55 10 173 33 364 70 437 85 50 10 108 21 130 24 22 4 47 8 55 11 8 2 29
7 45 10 43 7 137 24 160 29 173 35 318 63 360 70 14 3 33 7 43 10 9 3 33 7 52
10 41 7 69 12 130 25 25 6 62 13 84 16 21 3 43 8 48 11 6 4 5 -3 -2 -15 -6
-12 -13 -31 -15 -41 -2 -10 -15 -36 -29 -59 -38 -60 -83 -163 -92 -210 -9 -46
-38 -87 -166 -233 -57 -65 -112 -167 -173 -318 -26 -63 -49 -120 -52 -127 -2
-6 -59 -51 -126 -100 -192 -138 -249 -199 -276 -293 -7 -25 -16 -47 -20 -50
-4 -3 -48 -52 -98 -110 -124 -145 -218 -238 -249 -250 -18 -7 -37 -7 -58 -1
-32 11 -60 16 -137 26 -51 7 -58 2 -68 -48 -7 -33 -22 -40 -104 -50 -25 -3
-62 -10 -83 -16 -22 -6 -55 -13 -74 -16 -29 -4 -78 -14 -100 -20 -22 -6 -107
-19 -112 -17 -17 4 -6 -21 48 -115 51 -88 138 -220 153 -233 3 -3 25 -30 47
-60 126 -169 321 -350 519 -481 98 -66 286 -163 380 -198 33 -13 67 -26 75
-30 13 -7 231 -66 285 -77 11 -3 43 -7 70 -10 28 -3 61 -8 75 -11 14 -3 111
-7 215 -8 210 -3 293 5 490 49 122 27 321 99 450 163 522 261 928 702 1185
1288 23 54 99 260 105 285 2 8 13 49 24 90 11 41 23 92 27 114 6 38 5 39 -23
31 -28 -7 -150 -31 -207 -41 -17 -2 -38 -7 -47 -10 -10 -2 -30 -7 -45 -9 -16
-2 -65 -11 -109 -20 -44 -9 -91 -18 -105 -21 -14 -2 -45 -9 -70 -14 -25 -5
-72 -14 -105 -20 -76 -13 -102 -18 -140 -27 -16 -3 -39 -8 -50 -9 -11 -1 -53
-9 -93 -18 -40 -9 -87 -18 -105 -21 -18 -3 -54 -10 -82 -16 -27 -5 -61 -12
-75 -15 -14 -2 -36 -7 -50 -9 -14 -3 -38 -8 -55 -10 -29 -5 -90 -16 -110 -20
-43 -10 -638 -126 -666 -130 -35 -6 -35 -5 -33 27 1 18 3 41 3 51 1 10 22 40
47 67 25 27 43 53 40 59 -9 14 67 17 442 15 194 -1 359 2 380 8 20 5 62 12 92
15 71 6 150 52 179 104 13 22 23 61 25 91 6 102 -33 189 -190 423 -98 148
-119 175 -199 263 -32 35 -52 67 -56 89 -7 38 -8 37 114 108 27 15 72 49 100
75 29 26 77 59 107 74 33 16 88 59 137 108 94 93 81 95 170 -15 116 -144 183
-210 245 -244 22 -12 56 -40 75 -63 20 -23 48 -46 62 -52 34 -14 101 -17 124
-6 16 8 74 108 62 108 -2 0 -1 10 4 23 5 13 12 39 15 58 3 19 8 48 11 64 3 17
10 55 16 85 11 60 23 169 24 213 0 15 2 27 5 27 3 0 6 26 8 58 3 59 18 122 30
122 4 0 8 15 9 33 0 17 2 46 2 62 1 17 1 97 0 178 -2 131 -4 149 -20 157 -10
6 -24 7 -32 5 -9 -4 -17 5 -23 27 -8 25 -16 33 -32 32 -12 0 -22 5 -22 12 0
21 -40 24 -61 3 -10 -10 -19 -24 -19 -31 0 -6 -11 2 -25 18 -14 16 -25 38 -25
49 0 34 -59 125 -94 146 -19 11 -55 45 -82 77 -140 166 -371 364 -555 474 -80
49 -281 148 -299 148 -6 0 -18 4 -28 10 -29 16 -162 57 -257 79 -118 27 -227
41 -350 47 -55 3 -110 6 -122 8 -13 2 -24 2 -25 1z m1858 -1636 c-5 -42 -76
-242 -92 -258 -2 -2 -17 9 -33 25 -17 17 -55 45 -84 64 -53 33 -55 36 -69 102
-10 47 -11 68 -4 69 13 1 23 3 129 24 45 9 83 18 84 19 1 1 19 3 39 4 l36 3
-6 -52z m-1441 -1153 c50 -30 107 -62 128 -72 20 -10 37 -20 37 -24 0 -6 -180
-81 -230 -95 -24 -8 -64 -10 -264 -19 l-109 -5 86 87 c105 106 164 170 184
200 l16 22 31 -20 c17 -12 72 -45 121 -74z m-711 -651 c17 -71 21 -102 13
-107 -6 -4 -34 -10 -62 -14 -27 -4 -52 -8 -55 -9 -35 -8 -70 -15 -90 -19 -69
-11 -295 -58 -302 -62 -4 -3 -8 -1 -8 4 0 5 32 38 72 73 39 35 76 69 82 74 53
49 126 101 203 144 51 29 96 57 100 64 8 13 8 13 47 -148z"/>
</g>
</svg>
